<svg xmlns="http://www.w3.org/2000/svg" xml:space="preserve" id="Layer_1" x="0" y="0" version="1.1" viewBox="0 0 678.9 189.6"><path fill="#0e78be" d="m67.1 178.1-55.6-55.6c-15.2-15.2-15.2-40.2 0-55.4l55.6-55.6c15.2-15.2 40.2-15.2 55.4 0l55.6 55.6c15.2 15.2 15.2 40.2 0 55.4l-55.6 55.6c-15.3 15.3-40.2 15.3-55.4 0"/><path fill="#fff" d="M94.7 130.8c-17 0-27.9-4.9-27.9-8.2v-5.1c6 3.6 17.5 5.3 28.4 5.3 1.3 0 2.4-1.7 2.4-3s-1.1-3-2.4-3c-18.1 0-28.1-5.5-28.4-5.9V104c6 3.6 17.5 5.3 28.4 5.3 1.3 0 2.4-1.7 2.4-3s-1.1-3-2.4-3c-18.1 0-28.1-5.5-28.4-5.9v-7c6 3.6 17.5 5.3 28.4 5.3 1.3 0 2.4-1.7 2.4-3s-1.1-3-2.4-3c-18.1 0-28.1-5.5-28.4-5.9v-8c6 3.9 17 5.9 27.9 5.9 10.9 0 21.2-2 27.2-5.9v46.7-.1c.1 3.5-10.2 8.4-27.2 8.4m0-71.5c17 0 27.9 4.9 27.9 8.2v.2c-.5 3.3-11.2 8-27.9 8-17 0-27.9-4.9-27.9-8.2 0-3.4 10.9-8.2 27.9-8.2m32.6 8.6v-.4c0-8.5-16.4-13-32.7-13S62 59 62 67.5v55.7c0 8.5 16.4 13 32.7 13s32.7-4.5 32.7-13V67.9h-.1z"/><path fill="#3e4c59" d="M234.7 117h-15.8V70.3H235c4.6 0 8.6.9 12 2.8s5.9 4.5 7.7 8c1.8 3.5 2.7 7.6 2.7 12.5s-.9 9.1-2.7 12.6c-1.8 3.5-4.4 6.2-7.7 8.1-3.5 1.8-7.6 2.7-12.3 2.7zm-7.4-7.2h7c9.8 0 14.8-5.4 14.8-16.2 0-10.7-4.8-16.1-14.5-16.1h-7.2v32.3zM273.5 117.8c-2.2 0-4.2-.4-6-1.2-1.8-.8-3.2-2-4.2-3.6s-1.5-3.5-1.5-5.8c0-2.6.6-4.7 1.9-6.1 1.3-1.5 2.9-2.5 5-3.2 2-.7 4.2-1.1 6.4-1.3 3.1-.3 5.3-.6 6.6-.9s2-1 2-2.2v-.2c0-1.7-.5-3-1.6-4s-2.6-1.4-4.5-1.4c-2 0-3.7.4-4.9 1.3-1.2.9-2 1.9-2.4 3.1l-7.6-1.5c1-3.1 2.9-5.4 5.6-6.9 2.7-1.5 5.8-2.3 9.3-2.3 1.7 0 3.3.2 5 .6 1.7.4 3.2 1 4.6 1.9 1.4.9 2.5 2.1 3.4 3.7.9 1.6 1.3 3.5 1.3 5.8V117h-7.8v-4.8h-.3c-.8 1.5-2 2.8-3.7 3.9-1.7 1.1-3.9 1.7-6.6 1.7zm2.1-6.1c2.5 0 4.5-.7 6-2.2 1.5-1.4 2.2-3.1 2.2-5.1v-4.1c-.4.3-1 .5-2 .8-1 .2-2 .4-3.1.6s-2 .3-2.7.4c-1.8.3-3.4.8-4.6 1.5s-1.8 1.9-1.8 3.5c0 1.5.6 2.6 1.7 3.4 1.1.8 2.6 1.2 4.3 1.2zM315.6 82v6.4h-6.8v18.8c0 1.3.3 2.2.8 2.8.5.6 1.4.9 2.7.9.4 0 .9 0 1.5-.1s1.1-.2 1.5-.3l1.3 6.3c-.9.3-1.8.5-2.8.6-.9.1-1.8.2-2.7.2-3.4 0-5.9-.8-7.7-2.5-1.8-1.7-2.7-4.1-2.7-7.1V88.4h-5V82h5v-8.3h8.2V82h6.7zM331 117.8c-2.2 0-4.2-.4-6-1.2-1.8-.8-3.2-2-4.2-3.6s-1.5-3.5-1.5-5.8c0-2.6.6-4.7 1.9-6.1s2.9-2.5 5-3.2c2-.7 4.2-1.1 6.4-1.3 3.1-.3 5.3-.6 6.6-.9s2-1 2-2.2v-.2c0-1.7-.5-3-1.6-4-1-1-2.6-1.4-4.5-1.4-2 0-3.7.4-4.9 1.3-1.2.9-2 1.9-2.4 3.1l-7.6-1.5c1-3.1 2.9-5.4 5.6-6.9 2.7-1.5 5.8-2.3 9.3-2.3 1.7 0 3.3.2 5 .6 1.7.4 3.2 1 4.6 1.9 1.4.9 2.5 2.1 3.4 3.7.9 1.6 1.3 3.5 1.3 5.8V117h-7.8v-4.8h-.3c-.8 1.5-2 2.8-3.7 3.9-1.6 1.1-3.8 1.7-6.6 1.7zm2.1-6.1c2.5 0 4.5-.7 6-2.2 1.5-1.4 2.2-3.1 2.2-5.1v-4.1c-.4.3-1 .5-2 .8-1 .2-2 .4-3.1.6s-2 .3-2.7.4c-1.8.3-3.4.8-4.6 1.5s-1.8 1.9-1.8 3.5c0 1.5.6 2.6 1.7 3.4 1.2.8 2.6 1.2 4.3 1.2zM392.3 117.7c-4.1 0-7.8-1-11-2.9s-5.8-4.6-7.6-8.2c-1.9-3.6-2.8-7.9-2.8-12.9s.9-9.3 2.8-12.9c1.9-3.6 4.4-6.3 7.6-8.2 3.2-1.9 6.9-2.9 10.9-2.9 3.4 0 6.5.6 9.3 1.9 2.8 1.3 5.1 3.1 6.9 5.5 1.8 2.4 3 5.3 3.5 8.7h-8.4c-.5-2.8-1.8-4.9-3.9-6.4s-4.5-2.3-7.3-2.3c-3.8 0-7 1.4-9.4 4.3s-3.7 6.9-3.7 12.2c0 5.4 1.2 9.5 3.7 12.3 2.5 2.8 5.6 4.2 9.4 4.2 2.8 0 5.2-.8 7.3-2.3s3.3-3.7 3.9-6.4h8.5c-.4 3-1.5 5.7-3.2 8.2-1.7 2.4-4 4.4-6.8 5.8-2.8 1.5-6.1 2.3-9.7 2.3zM427.9 117.8c-2.2 0-4.2-.4-6-1.2-1.8-.8-3.2-2-4.2-3.6s-1.5-3.5-1.5-5.8c0-2.6.6-4.7 1.9-6.1s2.9-2.5 5-3.2c2-.7 4.2-1.1 6.4-1.3 3.1-.3 5.3-.6 6.6-.9 1.4-.3 2-1 2-2.2v-.2c0-1.7-.5-3-1.6-4-1-1-2.6-1.4-4.5-1.4-2 0-3.7.4-4.9 1.3-1.2.9-2 1.9-2.4 3.1l-7.6-1.5c1-3.1 2.9-5.4 5.6-6.9 2.7-1.5 5.8-2.3 9.3-2.3 1.7 0 3.3.2 5 .6 1.7.4 3.2 1 4.6 1.9 1.4.9 2.5 2.1 3.4 3.7.9 1.6 1.3 3.5 1.3 5.8V117h-7.8v-4.8h-.3c-.8 1.5-2 2.8-3.7 3.9-1.7 1.1-3.9 1.7-6.6 1.7zm2.1-6.1c2.5 0 4.5-.7 6-2.2 1.5-1.4 2.2-3.1 2.2-5.1v-4.1c-.4.3-1 .5-2 .8-1 .2-2 .4-3.1.6s-2 .3-2.7.4c-1.8.3-3.4.8-4.6 1.5s-1.8 1.9-1.8 3.5c0 1.5.6 2.6 1.7 3.4 1.2.8 2.6 1.2 4.3 1.2zM470.1 82v6.4h-6.8v18.8c0 1.3.3 2.2.8 2.8.5.6 1.4.9 2.7.9.4 0 .9 0 1.5-.1s1.1-.2 1.5-.3l1.3 6.3c-.9.3-1.8.5-2.8.6-.9.1-1.8.2-2.7.2-3.4 0-5.9-.8-7.7-2.5-1.8-1.7-2.7-4.1-2.7-7.1V88.4h-5V82h5v-8.3h8.2V82h6.7zM485.5 117.8c-2.2 0-4.2-.4-6-1.2-1.8-.8-3.2-2-4.2-3.6s-1.5-3.5-1.5-5.8c0-2.6.6-4.7 1.9-6.1s2.9-2.5 5-3.2c2-.7 4.2-1.1 6.4-1.3 3.1-.3 5.3-.6 6.6-.9 1.4-.3 2-1 2-2.2v-.2c0-1.7-.5-3-1.6-4-1-1-2.6-1.4-4.5-1.4-2 0-3.7.4-4.9 1.3-1.2.9-2 1.9-2.4 3.1l-7.6-1.5c1-3.1 2.9-5.4 5.6-6.9 2.7-1.5 5.8-2.3 9.3-2.3 1.7 0 3.3.2 5 .6 1.7.4 3.2 1 4.6 1.9 1.4.9 2.5 2.1 3.4 3.7.9 1.6 1.3 3.5 1.3 5.8V117h-7.8v-4.8h-.3c-.8 1.5-2 2.8-3.7 3.9-1.7 1.1-3.9 1.7-6.6 1.7zm2.1-6.1c2.5 0 4.5-.7 6-2.2 1.5-1.4 2.2-3.1 2.2-5.1v-4.1c-.4.3-1 .5-2 .8-1 .2-2 .4-3.1.6s-2 .3-2.7.4c-1.8.3-3.4.8-4.6 1.5s-1.8 1.9-1.8 3.5c0 1.5.6 2.6 1.7 3.4 1.1.8 2.5 1.2 4.3 1.2zM519.5 70.3V117h-8.2V70.3h8.2zM542.2 117.8c-3.4 0-6.4-.8-8.9-2.3s-4.4-3.6-5.8-6.3c-1.4-2.7-2.1-5.9-2.1-9.5 0-3.6.7-6.8 2.1-9.5 1.4-2.7 3.3-4.8 5.8-6.3s5.5-2.3 8.9-2.3 6.4.8 8.9 2.3c2.5 1.5 4.5 3.6 5.8 6.3 1.4 2.7 2.1 5.9 2.1 9.5 0 3.6-.7 6.7-2.1 9.5-1.4 2.7-3.3 4.8-5.8 6.3s-5.5 2.3-8.9 2.3zm0-6.7c1.9 0 3.5-.5 4.7-1.5 1.3-1 2.2-2.4 2.8-4.1.6-1.7.9-3.7.9-5.8 0-2.2-.3-4.1-.9-5.8s-1.6-3.1-2.8-4.1c-1.3-1-2.8-1.5-4.7-1.5-1.9 0-3.4.5-4.7 1.5-1.3 1-2.2 2.4-2.8 4.1-.6 1.7-.9 3.7-.9 5.8 0 2.1.3 4.1.9 5.8.6 1.7 1.6 3.1 2.8 4.1 1.3 1 2.9 1.5 4.7 1.5zM580.1 130.9c-4.2 0-7.6-.8-10.2-2.3-2.5-1.5-4.3-3.5-5.1-5.8l6.9-2.5c.5 1 1.4 2 2.7 2.9s3.1 1.4 5.7 1.4c2.5 0 4.6-.6 6.1-1.8 1.5-1.2 2.3-3 2.3-5.5v-6.6h-.7c-.4.8-1 1.7-1.8 2.6-.8.9-1.8 1.6-3.1 2.2s-3 .9-5 .9c-2.7 0-5.1-.6-7.3-1.9-2.2-1.3-3.9-3.2-5.2-5.7-1.3-2.5-1.9-5.7-1.9-9.5s.6-7.1 1.9-9.7c1.3-2.7 3-4.7 5.2-6.1 2.2-1.4 4.6-2.1 7.3-2.1 2.1 0 3.8.3 5.1 1 1.3.7 2.4 1.5 3.2 2.5.8 1 1.4 1.9 1.8 2.7h.4V82h8v35.1c0 3.1-.7 5.7-2.1 7.7s-3.4 3.5-5.8 4.5c-2.5 1.1-5.3 1.6-8.4 1.6zm0-20.8c2.7 0 4.7-1 6.1-2.9s2.2-4.5 2.2-7.9c0-3.3-.7-6-2.1-8-1.4-2-3.5-3.1-6.2-3.1-2.8 0-4.8 1.1-6.3 3.2-1.4 2.1-2.1 4.8-2.1 7.9 0 3.2.7 5.8 2.1 7.8 1.5 2 3.6 3 6.3 3zM616 117.5c-3.6 0-6.5-1.1-8.7-3.4-2.2-2.3-3.3-5.5-3.3-9.7V82h8.2v21c0 2.3.6 4.2 1.8 5.5 1.2 1.3 2.9 2 5 2 2.2 0 4-.7 5.4-2.1 1.4-1.4 2.1-3.4 2.1-5.9V82h8.2v35H627l-.1-7c-2.2 5-5.8 7.5-10.9 7.5zM657.6 117.8c-3.5 0-6.6-.7-9.1-2.2-2.5-1.5-4.5-3.6-5.9-6.3-1.4-2.7-2.1-5.9-2.1-9.5 0-3.6.7-6.8 2-9.5s3.3-4.9 5.7-6.4c2.5-1.5 5.4-2.3 8.7-2.3 2.8 0 5.5.6 7.9 1.9 2.4 1.2 4.4 3.2 5.9 5.8s2.2 6 2.2 10v2.6h-24.4c.1 3.1 1 5.5 2.6 7.1 1.6 1.6 3.8 2.4 6.4 2.4 1.8 0 3.3-.4 4.6-1.2s2.2-1.9 2.7-3.4l7.5 1.5c-.8 2.8-2.6 5.1-5.2 6.8-2.3 1.8-5.6 2.7-9.5 2.7zm-8.9-21.5h16.4c-.3-2.5-1.1-4.5-2.4-6-1.3-1.5-3.2-2.3-5.7-2.3s-4.5.8-5.9 2.4c-1.3 1.5-2.2 3.5-2.4 5.9z" /></svg>