<svg xmlns="http://www.w3.org/2000/svg" xml:space="preserve" id="Layer_1" x="0" y="0" version="1.1" viewBox="0 0 387.1 234.7"><path d="M42.4 221.1c-.7.5-1.6 1.1-2.8 1.7-1.2.6-2.6 1.2-4.2 1.6-1.6.4-3.3.6-5.2.6-3.2 0-6.2-.7-8.8-1.9-2.6-1.2-4.8-2.9-6.6-5-1.8-2.1-3.2-4.5-4.2-7.3s-1.5-5.7-1.5-8.8c0-3.4.5-6.6 1.5-9.4 1-2.9 2.5-5.4 4.3-7.5 1.8-2.1 4-3.8 6.6-5 2.5-1.2 5.3-1.8 8.3-1.8 2.5 0 4.8.4 6.8 1.1 2 .7 3.8 1.6 5.3 2.6l-2.3 5.7c-1.2-.8-2.6-1.6-4.2-2.4-1.6-.8-3.5-1.1-5.5-1.1s-4 .4-5.8 1.3c-1.8.9-3.4 2.1-4.8 3.7s-2.5 3.5-3.3 5.6c-.8 2.1-1.2 4.4-1.2 6.8 0 2.5.4 4.8 1.1 6.9.7 2.1 1.7 4 3.1 5.5 1.3 1.6 2.9 2.8 4.8 3.7 1.9.9 4 1.3 6.4 1.3 2.1 0 4-.4 5.7-1.1 1.7-.7 3-1.5 4.1-2.4l2.4 5.6zM45.5 201.7c0-3.2.5-6.1 1.6-8.9 1.1-2.8 2.6-5.3 4.6-7.4 2-2.2 4.2-3.9 6.8-5.1 2.6-1.2 5.3-1.9 8.3-1.9 2.9 0 5.7.6 8.2 1.9 2.6 1.2 4.8 2.9 6.8 5.1 2 2.2 3.5 4.6 4.7 7.4 1.1 2.8 1.7 5.8 1.7 8.9 0 3.2-.6 6.3-1.7 9.1s-2.7 5.3-4.6 7.4c-2 2.1-4.2 3.8-6.8 5-2.6 1.2-5.3 1.8-8.3 1.8-3 0-5.7-.6-8.3-1.8-2.6-1.2-4.8-2.8-6.8-4.9-2-2.1-3.5-4.6-4.6-7.4-1-2.8-1.6-5.9-1.6-9.2zm5.8.1c0 2.4.4 4.6 1.2 6.7.8 2.1 1.9 3.9 3.4 5.5 1.4 1.6 3.1 2.9 5 3.8 1.9.9 3.9 1.4 6.1 1.4 2.2 0 4.2-.5 6.1-1.4 1.9-.9 3.5-2.2 4.9-3.8 1.4-1.6 2.5-3.4 3.3-5.5.8-2.1 1.2-4.3 1.2-6.8 0-2.4-.4-4.7-1.2-6.8-.8-2.1-1.9-4-3.4-5.6-1.4-1.6-3.1-2.8-5-3.8-1.9-.9-3.9-1.4-6.1-1.4-2.2 0-4.2.5-6.1 1.4-1.9.9-3.5 2.2-5 3.8-1.4 1.6-2.5 3.5-3.3 5.6-.7 2.2-1.1 4.5-1.1 6.9zM92.7 201.7c0-3.2.5-6.1 1.6-8.9 1.1-2.8 2.6-5.3 4.6-7.4 2-2.2 4.2-3.9 6.8-5.1 2.6-1.2 5.3-1.9 8.3-1.9 2.9 0 5.7.6 8.2 1.9 2.6 1.2 4.8 2.9 6.8 5.1 2 2.2 3.5 4.6 4.7 7.4 1.1 2.8 1.7 5.8 1.7 8.9 0 3.2-.6 6.3-1.7 9.1s-2.7 5.3-4.6 7.4c-2 2.1-4.2 3.8-6.8 5-2.6 1.2-5.3 1.8-8.3 1.8-3 0-5.7-.6-8.3-1.8-2.6-1.2-4.8-2.8-6.8-4.9-2-2.1-3.5-4.6-4.6-7.4-1.1-2.8-1.6-5.9-1.6-9.2zm5.8.1c0 2.4.4 4.6 1.2 6.7.8 2.1 1.9 3.9 3.4 5.5 1.4 1.6 3.1 2.9 5 3.8 1.9.9 3.9 1.4 6.1 1.4 2.2 0 4.2-.5 6.1-1.4 1.9-.9 3.5-2.2 4.9-3.8 1.4-1.6 2.5-3.4 3.3-5.5.8-2.1 1.2-4.3 1.2-6.8 0-2.4-.4-4.7-1.2-6.8-.8-2.1-1.9-4-3.4-5.6-1.4-1.6-3.1-2.8-5-3.8-1.9-.9-3.9-1.4-6.1-1.4-2.2 0-4.2.5-6.1 1.4-1.9.9-3.5 2.2-5 3.8-1.4 1.6-2.5 3.5-3.3 5.6-.8 2.2-1.1 4.5-1.1 6.9zM153.5 178.9c2.1 0 4.1.3 5.9.9 1.8.6 3.4 1.5 4.7 2.7 1.3 1.2 2.4 2.7 3.1 4.4.8 1.7 1.1 3.8 1.1 6.1 0 1.8-.2 3.6-.7 5.3-.5 1.7-1.3 3.3-2.4 4.7-1.1 1.4-2.6 2.5-4.4 3.4-1.8.9-4 1.3-6.6 1.3H148v16.8h-5.6v-45.6h11.1zm.6 22.9c1.7 0 3-.3 4.1-.8 1.1-.5 2-1.3 2.6-2.1.6-.9 1.1-1.8 1.3-2.8.3-1 .4-2 .4-2.8 0-.9-.1-1.9-.4-2.9-.3-1-.8-1.9-1.4-2.7-.6-.8-1.5-1.5-2.5-2.1-1-.5-2.3-.8-3.7-.8H148v17.1h6.1zm6.9 3.5 10.9 19.2h-6.5l-11.1-19 6.7-.2zM178.1 224.5v-45.6h11.4c4.1 0 7.6.7 10.5 2.1 2.9 1.4 5.2 3.2 7 5.5 1.8 2.3 3.1 4.8 3.9 7.5.8 2.8 1.2 5.5 1.2 8.2 0 3.4-.5 6.5-1.6 9.3-1.1 2.7-2.6 5.1-4.5 7-1.9 1.9-4.1 3.4-6.6 4.4-2.5 1-5.1 1.5-7.9 1.5h-13.4zm5.6-5.9h6.7c2.3 0 4.4-.4 6.4-1.1 1.9-.8 3.6-1.9 5.1-3.3 1.4-1.4 2.6-3.2 3.4-5.3.8-2.1 1.2-4.4 1.2-7.1 0-2.8-.4-5.3-1.3-7.4-.8-2.1-2-3.9-3.5-5.3s-3.1-2.5-5-3.2c-1.8-.7-3.8-1.1-5.8-1.1h-7.2v33.8zM219.3 178.9h5.6v45.6h-5.6v-45.6zM270.7 225.9l-32.3-35.8 1.6.4.1 33.9h-5.6v-47h.3l31.9 35.9-1.3-.3-.1-34.2h5.5v47.1h-.1zM276.4 224.5l18.3-46.1h.3l18.2 46.1h-6.4l-13.6-36.8 4-2.8-15.3 39.6h-5.5zm10.7-16.8h15.5l1.8 5.1h-19l1.7-5.1zM312.4 178.9h27.7v5.9h-11.2v39.8h-5.6v-39.8h-10.9v-5.9zM346.7 178.9h27.1v5.9h-21.5v13.9h19.2v5.9h-19.2v14.1h22.4v5.9h-28v-45.7z" class="st0"/><circle cx="46.1" cy="124.9" r="36" fill="#04846f"/><circle cx="152.1" cy="106" r="54.9" fill="#0070af"/><circle cx="298.5" cy="84.8" r="76.1" fill="#ffe443"/></svg>