<svg xmlns="http://www.w3.org/2000/svg" id="Layer_1" version="1.1" viewBox="0 0 512 512"><path d="M275 383.3c-.8 0-2.5.7-3.5 4.4-2.2 10.2-3.6 20.6-4.2 31.1-1 4.7-8.3 10.9-14.4 7.3-3.7-2.2-7.6-4-11.6-5.5-4-1.7-8.2-3-12.5-3.9-6.9-1.6-8-11-5.5-15.2 6.9-8.1 13.1-16.7 18.7-25.8 1.9-3.5 1-5.1.5-5.7-4.3-2.4-8.5-5-12.5-7.9-.7 0-2.6-.4-5 2.7-6 8.7-11.3 17.9-15.9 27.4-2.7 4-11.9 6.9-16.1 1.2-2.6-3.4-5.5-6.6-8.7-9.6-3-3.1-6.3-5.9-9.8-8.3-1.1-1.1-2-2.3-2.5-3.8-.6-1.4-.8-2.9-.8-4.5 0-1.5.5-3 1.1-4.4.7-1.4 1.7-2.6 2.8-3.5 9.4-4.8 18.4-10.4 27-16.7 3.1-2.6 2.9-4.4 2.6-5.1-3-3.9-5.8-7.9-8.3-12.1-.6-.5-2.2-1.3-5.7.7-8.8 5.8-17.1 12.2-24.9 19.2-1.3.8-2.8 1.2-4.3 1.4-1.5.2-3.1 0-4.5-.5-1.5-.5-2.8-1.3-3.9-2.3-1.1-1-2-2.3-2.6-3.7-1.1-4.2-2.5-8.2-4.3-12.1-1.6-4-3.6-7.8-5.9-11.4-3.7-6.2 2.2-13.4 6.8-14.6 10.5-.9 20.9-2.6 31.1-5.2 3.7-1.2 4.4-2.8 4.4-3.6-1.3-4.6-2.4-9.4-3.1-14.1-.4-.7-1.6-2.1-5.5-1.6-10.4 1.9-20.7 4.6-30.6 8.1-4.7.9-13.3-3.5-12.5-10.6 1.1-8.5.9-17.2-.4-25.7-1.2-6.9 7.2-11.6 12-10.9 10.2 3.2 20.6 5.6 31.1 7.2 4 0 5.2-1.1 5.5-1.8.6-4.9 1.4-9.7 2.6-14.4 0-.9-.8-2.5-4.5-3.5-10.3-2.1-20.7-3.5-31.1-4.2-4.7-1-10.9-8.3-7.3-14.4 2.2-3.7 4-7.6 5.5-11.6 1.7-4 3-8.2 3.9-12.4.6-1.4 1.4-2.7 2.5-3.8 1.1-1.1 2.4-1.9 3.8-2.4s3-.7 4.5-.6c1.5.1 3 .6 4.4 1.3 8.1 6.8 16.7 13.1 25.8 18.7 3.5 1.8 5.2 1 5.8.4 2.4-4.3 5-8.5 8-12.4 0-.7 0-2.6-2.8-5-8.7-6-17.9-11.3-27.5-15.9-4-2.7-6.9-11.8-1.2-16 6.8-5.4 12.8-11.7 17.9-18.7 4-5.8 13.3-3.2 16.1.7 4.8 9.4 10.4 18.4 16.7 26.9 2.6 3.1 4.4 2.9 5.1 2.7 3.8-3 7.9-5.8 12.1-8.3.5-.6 1.3-2.2-.7-5.7-5.7-8.9-12.2-17.3-19.2-25.2-2.6-4-1.9-13.6 5-15.3 4.3-1 8.4-2.5 12.5-4.3 4-1.7 7.8-3.8 11.5-6.2 6.2-3.8 13.5 2.2 14.6 6.8.9 10.5 2.6 20.9 5.2 31.1 1.1 3.6 2.8 4.2 3.6 4.3 4.7-1.3 9.5-2.3 14.4-3 .7-.3 2.1-1.6 1.7-5.5-2.1-10.1-4.9-20.1-8.6-29.7-.9-4.7 3.5-13.2 10.5-12.4 8.4.6 16.9.2 25.3-1.1 7-1.2 11.6 7.2 11 11.9-3.3 10.2-5.7 20.6-7.3 31.1 0 4 1.1 5.1 1.9 5.5 3.4.4 6.8 1.1 10.1 1.8l11.8-66.6H72.9L5.2 450.6h269.3l11.6-65.3c-3.7-.6-7.5-1.4-11.1-2ZM468.4 68.4l-67.6 382.2h38.4l67.6-382.2h-38.4Z" fill="#db316c" /><path fill="#4b9bd9" d="M418.9 259.4c0 2.3-.5 4.5-1.3 6.6-.4 1-.9 2.1-1.6 3-.6 1-1.4 2-2.2 2.8L351 334.6c-1.5 2-3.5 3.6-5.7 4.8-2.2 1.2-4.7 1.9-7.2 2-2.5.2-5-.2-7.4-1.1-2.4-.9-4.5-2.3-6.3-4-1.8-1.8-3.2-3.9-4-6.3-.9-2.3-1.3-4.9-1.1-7.4.2-2.5.8-5 2-7.2s2.8-4.2 4.8-5.7l32.4-32.4H219.7c-4.7 0-9.2-1.9-12.5-5.2-3.3-3.3-5.2-7.8-5.2-12.5s1.9-9.2 5.2-12.5c3.3-3.3 7.8-5.2 12.5-5.2h138.7L326 209.5c-2-1.5-3.6-3.5-4.8-5.7-1.2-2.2-1.9-4.7-2-7.2-.2-2.5.2-5 1.1-7.4.9-2.3 2.3-4.5 4-6.3 1.8-1.8 3.9-3.2 6.3-4 2.4-.9 4.9-1.3 7.4-1.1 2.5.2 5 .8 7.2 2s4.2 2.8 5.7 4.8l62.9 62.4c.8.8 1.6 1.7 2.2 2.7.6.9 1.1 1.9 1.5 2.9.9 2.1 1.4 4.4 1.5 6.8Z"/></svg>