<svg xmlns="http://www.w3.org/2000/svg" xml:space="preserve" viewBox="0 0 512 512"><path fill="#0e78be" d="m191.6 459.1-134-134c-36.7-36.7-36.7-96.8 0-133.6l134-134.1c36.7-36.7 96.8-36.7 133.6 0l134.1 134.1c36.7 36.7 36.7 96.8 0 133.6l-134.1 134c-36.7 36.7-96.8 36.7-133.6 0"/><path fill="#fff" d="M258.2 345c-41.1 0-67.3-11.7-67.3-19.8v-12.4c14.5 8.6 42.2 12.7 68.5 12.7 3.2 0 5.7-4.1 5.7-7.3s-2.6-7.3-5.7-7.3c-43.7 0-67.8-13.2-68.5-14.1v-16.3c14.5 8.6 42.2 12.7 68.5 12.7 3.2 0 5.7-4.1 5.7-7.3s-2.6-7.3-5.7-7.3c-43.7 0-67.8-13.2-68.5-14.1v-16.8c14.5 8.6 42.2 12.7 68.5 12.7 3.2 0 5.7-4.1 5.7-7.3s-2.6-7.3-5.7-7.3c-43.7 0-67.8-13.2-68.5-14.1v-19.3c14.6 9.4 41 14.3 67.3 14.3 26.2 0 51-4.8 65.6-14.2v112.7l.1-.1c0 8.2-24.6 19.9-65.7 19.9m0-172.3c41.1 0 67.3 11.7 67.3 19.8h-.1v.6c-1.2 8.1-27 19.3-67.2 19.3-41.1 0-67.3-11.7-67.3-19.8.1-8.2 26.3-19.9 67.3-19.9m78.6 20.7c0-.3.1-.6.1-.9 0-20.5-39.6-31.3-78.7-31.3s-78.7 10.7-78.7 31.3v134.2c0 20.5 39.6 31.3 78.7 31.3s78.7-10.7 78.7-31.3c0-.6 0-1.2-.1-1.8V193.4z"/></svg>