<svg xmlns="http://www.w3.org/2000/svg" xml:space="preserve" id="Layer_1" x="0" y="0" version="1.1" viewBox="0 0 512 512"><style>.st1{fill:#fff}.st2{fill:#444b98}</style><circle cx="245.4" cy="224.7" r="180.7" fill="#8fb37c"/><path d="m158.3 447.2 80.9-115.6c2.9-2.9 58.2-28.9 92.9-89.6 35.3-61.7 49.1-130.1-9.1-144.6-75.2-8.7-72.3 78.1-72.3 78.1s-47.2 45.4-57.4 60.8c-23.1 34.7-7.5 75.8-9.7 94.2-2.2 18.4-25.3 116.7-25.3 116.7z" class="st1"/><path d="m148.9 468.2 5.2-22c.2-1 23.1-98.3 25.3-116.3.6-4.8-.2-11.7-1.2-19.7-2.5-21.2-5.8-50.3 11.6-76.4 9.5-14.3 48.7-52.5 56.7-60.2 0-8.9 1.7-44.9 24.5-66 13.2-12.1 30.9-17 52.6-14.5l.6.1c18.6 4.6 31.4 14.8 38 30.1 11.7 27.3 2.1 71.3-26.2 120.9-30.2 52.8-75.2 79.6-90.1 88.4-1.4.8-2.8 1.7-3.4 2.1l-93.6 133.5zm164-367c-14.7 0-26.8 4.3-36 12.8-22.8 21-21.8 61-21.8 61.4l.1 1.9-1.4 1.3c-.5.5-47 45.2-56.8 60-15.6 23.4-12.5 50.7-10.2 70.6 1 8.6 1.9 16 1.1 21.8-1.6 13.2-13.4 65.2-20.4 95.4l68.6-97.8c.8-.8 1.8-1.4 5.3-3.4 14.3-8.5 57.9-34.4 87-85.2 26.9-47.1 36.3-88.4 25.7-113.2-5.4-12.6-16.1-21-31.8-25-3.3-.4-6.4-.6-9.4-.6z" class="st2"/><path d="M206 239C203.7 235.9 11.2 90.3 20.1 77s266.5 93 266.5 93L206 239z" class="st1"/><path d="m205.3 245.3-2.6-3.5c-1.6-1.4-10.4-8.3-20.7-16.4C20 98.6 11.2 82.5 16.5 74.5c3-4.5 7.5-11.2 141.8 39.8 64.8 24.6 129.4 51.3 130 51.5l6.5 2.7-89.5 76.8zM25 80c7.3 13.4 61.9 60 162.4 138.7 10.4 8.1 15.7 12.3 18.6 14.6l72.5-62.1C167.6 125.6 46.2 80.2 25 80z" class="st2"/><path d="M238.8 261c1.8 2.7-234-124.2-228.4-141.6C16 102 290.8 157 290.8 157l-52 104z" class="st1"/><path d="M239.5 265.3c-3.5 0-12.3-4.8-46.8-23.7-18.3-10-54.4-29.9-90.9-51.5C2.1 131.3 4.7 123 6.3 118c1.8-5.8 4.6-14.5 147.1 9.3 68.7 11.5 137.6 25.2 138.3 25.3l5.6 1.1-53.4 106.9.5.8-2.4 2.6c-.7.8-1.3 1.3-2.5 1.3zM15.4 121c3.2 4.6 20.3 21 110.1 73 49.9 28.9 98.3 54.8 111.4 61.4l47.6-95.3C164.6 136.2 33.8 115.2 15.4 121z" class="st2"/><path d="m264.3 290-44-20.9 57.9-132.6 53.8 11.3z" class="st1"/><circle cx="326.3" cy="135.1" r="11.6" class="st2"/><path fill="#ee478d" d="m507 139.4-133-17.3v34.7z"/></svg>