<?xml version="1.0" encoding="UTF-8" standalone="no"?>
<svg
   xmlns:dc="http://purl.org/dc/elements/1.1/"
   xmlns:cc="http://creativecommons.org/ns#"
   xmlns:rdf="http://www.w3.org/1999/02/22-rdf-syntax-ns#"
   xmlns:svg="http://www.w3.org/2000/svg"
   xmlns="http://www.w3.org/2000/svg"
   viewBox="0 0 570.51251 109.575"
   height="109.575"
   width="570.51251"
   xml:space="preserve"
   version="1.1"
   id="svg2"><metadata
     id="metadata8"><rdf:RDF><cc:Work
         rdf:about=""><dc:format>image/svg+xml</dc:format><dc:type
           rdf:resource="http://purl.org/dc/dcmitype/StillImage" /></cc:Work></rdf:RDF></metadata><defs
     id="defs6"><clipPath
       id="clipPath18"
       clipPathUnits="userSpaceOnUse"><path
         id="path20"
         d="m 0,0 4564,0 0,876.602 -4564,0 L 0,0 Z" /></clipPath></defs><g
     transform="matrix(1.25,0,0,-1.25,0,109.575)"
     id="g10"><g
       transform="scale(0.1,0.1)"
       id="g12"><g
         id="g14"><g
           clip-path="url(#clipPath18)"
           id="g16"><path
             id="path22"
             style="fill:#ffffff;fill-opacity:1;fill-rule:nonzero;stroke:none"
             d="m 329.227,0.53125 -162.442,0 C 74.8203,0.53125 0,75.2461 0,167.086 l 0,271.316 c 0,91.84 74.8203,166.555 166.785,166.555 l 162.317,0.66 c 0.043,0 0.086,0 0.128,0 17.079,0 30.958,-13.808 31.028,-30.906 0.07,-17.137 -13.77,-31.082 -30.906,-31.152 L 166.91,542.898 c -57.871,0 -104.8514,-46.878 -104.8514,-104.496 l 0,-271.316 c 0,-57.621 46.9804,-104.4962 104.7264,-104.4962 l 162.442,0 c 17.136,0 31.031,-13.8945 31.031,-31.0312 0,-17.1328 -13.895,-31.02735 -31.031,-31.02735" /><path
             id="path24"
             style="fill:#ffffff;fill-opacity:1;fill-rule:nonzero;stroke:none"
             d="M 787.176,0 594.391,0 C 502.426,0 427.605,74.793 427.605,166.723 l 0,271.64 c 0,91.934 74.821,166.723 166.786,166.723 l 77.629,0 c 91.968,0 166.789,-74.789 166.789,-166.723 l 0,-150.816 -290.215,0 c -17.141,0 -31.031,13.894 -31.031,31.031 0,17.137 13.89,31.027 31.031,31.027 l 228.152,0 0,88.758 c 0,57.711 -46.98,104.664 -104.726,104.664 l -77.629,0 c -57.746,0 -104.727,-46.953 -104.727,-104.664 l 0,-271.64 c 0,-57.711 46.981,-104.6644 104.727,-104.6644 l 192.785,0 c 17.137,0 31.027,-13.8906 31.027,-31.0273 C 818.203,13.8945 804.313,0 787.176,0" /><path
             id="path26"
             style="fill:#ffffff;fill-opacity:1;fill-rule:nonzero;stroke:none"
             d="m 2609.22,3.10547 -96.06,0 c -46.15,0 -88.98,22.62113 -120.59,63.69923 -29.79,38.7223 -46.2,89.9143 -46.2,144.1443 0,110.031 68.59,186.879 166.79,186.879 l 136.69,0 c 17.13,0 31.03,-13.894 31.03,-31.031 0,-17.137 -13.9,-31.031 -31.03,-31.031 l -136.69,0 c -62.64,0 -104.73,-50.157 -104.73,-124.817 0,-80.386 46.99,-145.781 104.73,-145.781 l 96.06,0 c 57.75,0 104.73,46.934 104.73,104.625 l 0,271.711 c 0,57.691 -46.98,104.629 -104.73,104.629 l -179.05,0 c -17.14,0 -31.03,13.89 -31.03,31.031 0,17.137 13.89,31.027 31.03,31.027 l 179.05,0 c 91.97,0 166.79,-74.773 166.79,-166.687 l 0,-271.711 c 0,-91.9102 -74.82,-166.68753 -166.79,-166.68753" /><path
             id="path28"
             style="fill:#ffffff;fill-opacity:1;fill-rule:nonzero;stroke:none"
             d="m 2094.17,0 -98.1,0.00390625 c -91.96,0 -166.78,74.79299375 -166.78,166.71909375 l 0,271.769 c 0,91.934 74.82,166.723 166.78,166.723 l 139.26,0 c 17.13,0 31.03,-13.891 31.03,-31.031 0,-17.137 -13.9,-31.028 -31.03,-31.028 l -139.26,0 c -57.74,0 -104.72,-46.953 -104.72,-104.664 l 0,-271.769 c 0,-57.707 46.98,-104.6605 104.72,-104.6605 l 98.1,-0.0039 c 57.75,0 104.73,46.9534 104.73,104.6604 l 0,678.851 c 0,17.137 13.89,31.032 31.03,31.032 17.13,0 31.03,-13.895 31.03,-31.032 l 0,-678.851 C 2260.96,74.793 2186.14,0 2094.17,0" /><path
             id="path30"
             style="fill:#ffffff;fill-opacity:1;fill-rule:nonzero;stroke:none"
             d="M 1144.13,0 966.199,0 c -17.136,0 -31.027,13.8945 -31.027,31.0313 0,17.1367 13.891,31.0273 31.027,31.0273 l 177.931,0 c 55.61,0 100.85,45.1994 100.85,100.7544 0,47.691 -33.88,89.207 -80.57,98.718 l -86.88,18.032 c -13.9,2.484 -33.49,8.242 -39.67,10.601 -62.641,23.961 -104.719,85.086 -104.719,152.109 0,89.778 73.079,162.813 162.909,162.813 l 134.23,0 c 17.14,0 31.03,-13.891 31.03,-31.027 0,-17.141 -13.89,-31.032 -31.03,-31.032 l -134.23,0 c -55.61,0 -100.851,-45.199 -100.851,-100.754 0,-41.48 26.041,-79.308 64.811,-94.14 3.06,-1.129 18.68,-5.774 28.72,-7.528 l 0.97,-0.183 87.22,-18.102 c 75.35,-15.351 130.12,-82.441 130.12,-159.507 C 1307.04,73.0352 1233.96,0 1144.13,0" /><path
             id="path32"
             style="fill:#ffffff;fill-opacity:1;fill-rule:nonzero;stroke:none"
             d="m 1578.35,0 -177.94,0 c -17.13,0 -31.03,13.8945 -31.03,31.0313 0,17.1367 13.9,31.0273 31.03,31.0273 l 177.94,0 c 55.61,0 100.85,45.1994 100.85,100.7544 0,47.691 -33.89,89.207 -80.57,98.718 l -86.88,18.032 c -13.9,2.484 -33.5,8.242 -39.67,10.601 -62.65,23.961 -104.73,85.086 -104.73,152.109 0,89.778 73.08,162.813 162.91,162.813 l 134.23,0 c 17.14,0 31.03,-13.891 31.03,-31.027 0,-17.141 -13.89,-31.032 -31.03,-31.032 l -134.23,0 c -55.61,0 -100.85,-45.199 -100.85,-100.754 0,-41.48 26.05,-79.308 64.81,-94.14 3.07,-1.129 18.69,-5.774 28.72,-7.528 l 0.97,-0.183 87.22,-18.102 c 75.35,-15.351 130.13,-82.441 130.13,-159.507 C 1741.26,73.0352 1668.18,0 1578.35,0" /><path
             id="path34"
             style="fill:#ffffff;fill-opacity:1;fill-rule:nonzero;stroke:none"
             d="m 3639.83,34.1367 c 0,-17.1367 13.89,-31.03123 31.03,-31.03123 17.14,0 31.03,13.89453 31.03,31.03123 l 0,411.5973 c 0,57.618 46.98,104.496 104.85,104.496 l 57.72,0.657 c 17.14,0.07 30.97,14.019 30.9,31.156 -0.07,17.098 -13.94,30.906 -31.03,30.906 -0.04,0 -0.08,0 -0.12,0 l -57.59,-0.66 c -40.24,0 -77.19,-14.301 -106.03,-38.082 l 1.03,8.441 c 0,17.137 -13.89,31.028 -31.03,31.028 -17.13,0 -31.03,-13.891 -31.03,-31.028 l 0.27,-548.5113" /><path
             id="path36"
             style="fill:#ffffff;fill-opacity:1;fill-rule:nonzero;stroke:none"
             d="m 3461.95,3.10547 -192.78,0 c -91.97,0 -166.79,74.79293 -166.79,166.72253 l 0,271.641 c 0,91.933 74.82,166.722 166.79,166.722 l 77.63,0 c 91.97,0 166.78,-74.789 166.78,-166.722 l 0,-150.817 -290.21,0 c -17.14,0 -31.03,13.895 -31.03,31.032 0,17.136 13.89,31.031 31.03,31.031 l 228.15,0 0,88.754 c 0,57.715 -46.98,104.664 -104.72,104.664 l -77.63,0 c -57.75,0 -104.73,-46.949 -104.73,-104.664 l 0,-271.641 c 0,-57.711 46.98,-104.66 104.73,-104.66 l 192.78,0 c 17.14,0 31.03,-13.8946 31.03,-31.0313 0,-17.1367 -13.89,-31.03123 -31.03,-31.03123" /><path
             id="path38"
             style="fill:#ffffff;fill-opacity:1;fill-rule:nonzero;stroke:none"
             d="m 4533.04,3.10547 -162.44,0 c -91.96,0 -166.78,74.71483 -166.78,166.55453 l 0,271.317 c 0,91.839 74.82,166.558 166.78,166.558 l 162.32,0.656 c 0.04,0 0.08,0 0.12,0 17.09,0 30.96,-13.808 31.03,-30.902 0.07,-17.137 -13.76,-31.086 -30.9,-31.156 l -162.44,-0.66 c -57.87,0 -104.85,-46.875 -104.85,-104.496 l 0,-271.317 c 0,-57.617 46.98,-104.492 104.72,-104.492 l 162.44,0 c 17.14,0 31.03,-13.8946 31.03,-31.0313 0,-17.1367 -13.89,-31.03123 -31.03,-31.03123" /><path
             id="path40"
             style="fill:#ffffff;fill-opacity:1;fill-rule:nonzero;stroke:none"
             d="m 4055.91,580.27 c 0,17.136 -13.89,31.031 -31.03,31.031 -17.13,0 -31.03,-13.895 -31.03,-31.031 l 0,-546.1333 c 0,-17.1367 13.89,-31.03123 31.03,-31.03123 17.14,0 31.03,13.89453 31.03,31.03123 l 0,546.1333" /><path
             id="path42"
             style="fill:#ffffff;fill-opacity:1;fill-rule:nonzero;stroke:none"
             d="m 4058.86,728.32 c 0,-18.769 -15.21,-33.98 -33.98,-33.98 -18.77,0 -33.98,15.211 -33.98,33.98 0,18.766 15.21,33.981 33.98,33.981 18.77,0 33.98,-15.215 33.98,-33.981" /></g></g></g></g></svg>